<svg width="79" height="40" viewBox="0 0 79 40" fill="none" xmlns="http://www.w3.org/2000/svg">
<path d="M4.14746 39.375H75.4854C76.3968 39.375 77.1781 39.0577 77.8292 38.4229C78.4802 37.7881 78.8057 36.9987 78.8057 36.0547C78.8057 35.1433 78.4802 34.362 77.8292 33.7109C77.1781 33.0599 76.3968 32.7344 75.4854 32.7344H4.14746C3.23599 32.7344 2.46289 33.0599 1.82816 33.7109C1.19337 34.362 0.875977 35.1433 0.875977 36.0547C0.875977 36.9987 1.19337 37.7881 1.82816 38.4229C2.46289 39.0577 3.23599 39.375 4.14746 39.375ZM4.14746 23.1152H75.4854C76.3968 23.1152 77.1781 22.7897 77.8292 22.1387C78.4802 21.4877 78.8057 20.7064 78.8057 19.7949C78.8057 18.8509 78.4802 18.0616 77.8292 17.4268C77.1781 16.792 76.3968 16.4746 75.4854 16.4746H4.14746C3.23599 16.4746 2.46289 16.792 1.82816 17.4268C1.19337 18.0616 0.875977 18.8509 0.875977 19.7949C0.875977 20.7064 1.19337 21.4877 1.82816 22.1387C2.46289 22.7897 3.23599 23.1152 4.14746 23.1152ZM4.14746 6.80664H75.4854C76.3968 6.80664 77.1781 6.48927 77.8292 5.85454C78.4802 5.21974 78.8057 4.44664 78.8057 3.53524C78.8057 2.59117 78.4802 1.80178 77.8292 1.16704C77.1781 0.532242 76.3968 0.214844 75.4854 0.214844H4.14746C3.23599 0.214844 2.46289 0.532242 1.82816 1.16704C1.19337 1.80178 0.875977 2.59117 0.875977 3.53524C0.875977 4.44664 1.19337 5.21974 1.82816 5.85454C2.46289 6.48927 3.23599 6.80664 4.14746 6.80664Z" fill="black"/>
</svg>
