<svg width="123" height="27" viewBox="0 0 123 27" fill="none" xmlns="http://www.w3.org/2000/svg">
<path d="M52.6745 9.232C55.7625 9.232 57.3065 11.12 57.3065 14.896V22H53.7545V15.568C53.7545 13.312 53.1065 12.184 51.8105 12.184C51.0905 12.184 50.5305 12.504 50.1305 13.144C49.7465 13.784 49.5545 14.656 49.5545 15.76V22H46.0025V15.568C46.0025 13.312 45.3545 12.184 44.0585 12.184C43.3385 12.184 42.7785 12.504 42.3785 13.144C41.9945 13.784 41.8025 14.656 41.8025 15.76V22H38.2505V9.472H41.2265L41.4185 10.768C42.3465 9.744 43.5145 9.232 44.9225 9.232C46.7145 9.232 47.9785 9.856 48.7145 11.104C49.6585 9.856 50.9785 9.232 52.6745 9.232ZM60.1651 7.816V4.6H63.6931V7.816H60.1651ZM60.1651 22V9.472H63.6931V22H60.1651ZM66.9151 7.816V4.6H70.4431V7.816H66.9151ZM66.9151 22V9.472H70.4431V22H66.9151ZM80.3851 9.232C82.1931 9.232 83.6491 9.848 84.7531 11.08C85.8731 12.312 86.4331 13.864 86.4331 15.736C86.4331 17.592 85.8731 19.144 84.7531 20.392C83.6331 21.624 82.1771 22.24 80.3851 22.24C78.9931 22.24 77.9131 21.72 77.1451 20.68V26.032H73.6171V9.472H76.5451L76.8331 11.248C77.6011 9.904 78.7851 9.232 80.3851 9.232ZM77.9131 18.16C78.4251 18.8 79.0971 19.12 79.9291 19.12C80.7611 19.12 81.4331 18.8 81.9451 18.16C82.4731 17.52 82.7371 16.72 82.7371 15.76C82.7371 14.784 82.4731 13.976 81.9451 13.336C81.4331 12.68 80.7611 12.352 79.9291 12.352C79.0971 12.352 78.4251 12.68 77.9131 13.336C77.4011 13.976 77.1451 14.776 77.1451 15.736C77.1451 16.712 77.4011 17.52 77.9131 18.16ZM88.6183 22V4.72H92.1463V22H88.6183ZM106.912 22H103.504C103.328 21.392 103.176 20.696 103.048 19.912C102.248 21.432 100.848 22.192 98.8483 22.192C97.5523 22.192 96.5443 21.896 95.8243 21.304C95.1203 20.696 94.7683 19.832 94.7683 18.712C94.7683 17.576 95.2083 16.664 96.0883 15.976C96.9843 15.272 98.5123 14.768 100.672 14.464L102.88 14.104C102.832 12.76 102.12 12.088 100.744 12.088C99.6243 12.088 98.8723 12.656 98.4883 13.792L95.2963 13.24C95.5523 12.168 96.1523 11.24 97.0963 10.456C98.0563 9.656 99.3763 9.256 101.056 9.256C104.64 9.256 106.432 11.008 106.432 14.512V17.8C106.432 19.384 106.592 20.784 106.912 22ZM100 19.48C100.816 19.48 101.496 19.216 102.04 18.688C102.6 18.144 102.88 17.344 102.88 16.288V16.216L102.352 16.288C100.864 16.528 99.8563 16.792 99.3283 17.08C98.8003 17.368 98.5363 17.768 98.5363 18.28C98.5363 18.664 98.6643 18.96 98.9203 19.168C99.1763 19.376 99.5363 19.48 100 19.48ZM115.991 9.232C119.063 9.232 120.599 11.12 120.599 14.896V22H117.047V15.568C117.047 14.368 116.871 13.504 116.519 12.976C116.183 12.448 115.671 12.184 114.983 12.184C114.231 12.184 113.647 12.504 113.231 13.144C112.815 13.784 112.607 14.656 112.607 15.76V22H109.055V9.472H112.007L112.319 11.416C113.151 9.96 114.375 9.232 115.991 9.232Z" fill="black"/>
<path d="M28.5812 18.8554C29.0035 18.0952 28.5812 17.0816 27.7365 16.7438L22.8627 14.418L18.8068 16.2298C17.3311 16.8337 16.5887 16.8586 15.098 16.2125L6.24729 12.1411L1.04574 14.4632C0.836168 14.5473 0.645801 14.673 0.486119 14.8327C0.326437 14.9924 0.200748 15.1828 0.116632 15.3923C-0.221226 16.1525 0.201097 17.1661 1.04574 17.504L15.5736 24.0077C16.5028 24.43 17.5163 24.43 18.361 24.0077L27.7365 19.7845C28.1187 19.5839 28.4178 19.2549 28.5812 18.8554Z" fill="#256AF1"/>
<path d="M10.506 1.79379C11.3506 1.37147 12.3642 1.37147 13.2933 1.79379L27.8212 8.29756C28.6659 8.63542 29.0882 9.649 28.6659 10.4936C28.5025 10.8931 28.2034 11.2222 27.8212 11.4228L18.4457 15.646C17.601 16.0683 16.5874 16.0683 15.6583 15.646L1.04597 9.14221C0.201324 8.80435 -0.220999 7.79078 0.201324 6.94613C0.370253 6.52381 0.713501 6.18595 1.05136 6.10149L10.506 1.79379Z" fill="#F15025"/>
</svg>
